<?xml version="1.0" encoding="UTF-8" standalone="no"?>
<!-- Created with Inkscape (http://www.inkscape.org/) -->

<svg
   xmlns:dc="http://purl.org/dc/elements/1.1/"
   xmlns:cc="http://creativecommons.org/ns#"
   xmlns:rdf="http://www.w3.org/1999/02/22-rdf-syntax-ns#"
   xmlns:svg="http://www.w3.org/2000/svg"
   xmlns="http://www.w3.org/2000/svg"
   xmlns:sodipodi="http://sodipodi.sourceforge.net/DTD/sodipodi-0.dtd"
   xmlns:inkscape="http://www.inkscape.org/namespaces/inkscape"
   width="90.311111mm"
   height="28.398569mm"
   viewBox="0 0 320 100.62485"
   id="svg2"
   version="1.1"
   inkscape:version="0.91 r13725"
   sodipodi:docname="logo.svg">
  <defs
     id="defs4" />
  <sodipodi:namedview
     id="base"
     pagecolor="#ffffff"
     bordercolor="#666666"
     borderopacity="1.0"
     inkscape:pageopacity="0.0"
     inkscape:pageshadow="2"
     inkscape:zoom="0.7"
     inkscape:cx="31.36528"
     inkscape:cy="-5.019593"
     inkscape:document-units="px"
     inkscape:current-layer="layer1"
     showgrid="false"
     inkscape:window-width="1855"
     inkscape:window-height="1056"
     inkscape:window-x="65"
     inkscape:window-y="24"
     inkscape:window-maximized="1"
     fit-margin-top="0"
     fit-margin-left="0"
     fit-margin-right="0"
     fit-margin-bottom="0" />
  <metadata
     id="metadata7">
    <rdf:RDF>
      <cc:Work
         rdf:about="">
        <dc:format>image/svg+xml</dc:format>
        <dc:type
           rdf:resource="http://purl.org/dc/dcmitype/StillImage" />
        <dc:title />
      </cc:Work>
    </rdf:RDF>
  </metadata>
  <g
     inkscape:label="Layer 1"
     inkscape:groupmode="layer"
     id="layer1"
     transform="translate(-210.01882,-413.13083)">
    <g
       style="font-style:normal;font-weight:normal;font-size:40px;line-height:125%;font-family:sans-serif;letter-spacing:0px;word-spacing:0px;fill:#ffffff;fill-opacity:1;stroke:none;stroke-width:1px;stroke-linecap:butt;stroke-linejoin:miter;stroke-opacity:1"
       id="text3336-3">
      <g
         id="g3504"
         style="fill:#ffffff">
        <g
           transform="matrix(1.0193619,0,0,1,-6.0326665,0)"
           id="g3480"
           style="fill:#ffffff">
          <path
             inkscape:connector-curvature="0"
             d="m 219.94778,449.93083 q -2.12,0 -5.2,-0.4 l 0,-5.2 3.6,0 q 1.52,0 1.96,-0.84 0.48,-0.84 -0.16,-2.36 l -8.2,-19.6 7.4,0 5,13.6 4.2,-13.6 7.4,0 -8,22 q -1.16,3.16 -3,4.76 -1.84,1.64 -5,1.64 z"
             style="font-style:normal;font-variant:normal;font-weight:normal;font-stretch:normal;font-family:'Russo One';-inkscape-font-specification:'Russo One';text-align:center;text-anchor:middle;fill:#ffffff"
             id="path3440" />
          <path
             inkscape:connector-curvature="0"
             d="m 245.16028,431.33083 q 3.4,0 5.6,-0.2 l 0,-9.6 7,0 0,21.2 -7,0 0,-6.4 q -4.28,0.4 -8,0.4 -2.72,0 -4.36,-1.64 -1.64,-1.64 -1.64,-4.36 l 0,-9.2 7,0 0,8.4 q 0,0.6 0.4,1 0.4,0.4 1,0.4 z"
             style="font-style:normal;font-variant:normal;font-weight:normal;font-stretch:normal;font-family:'Russo One';-inkscape-font-specification:'Russo One';text-align:center;text-anchor:middle;fill:#ffffff"
             id="path3442" />
          <path
             inkscape:connector-curvature="0"
             d="m 269.96965,426.13083 q -1.6,0 -1.6,1.6 l 0,2.2 6.8,0 0,-2.2 q 0,-1.6 -1.6,-1.6 l -3.6,0 z m 11.4,16.2 q -7.72,0.8 -14,0.8 -2.72,0 -4.36,-1.64 -1.64,-1.64 -1.64,-4.36 l 0,-9.6 q 0,-3 1.68,-4.68 1.72,-1.72 4.72,-1.72 l 8,0 q 3,0 4.68,1.72 1.72,1.68 1.72,4.68 l 0,7.4 -13.8,0 0,1.6 q 0,0.6 0.4,1 0.4,0.4 1,0.4 3.96,0 11.6,-0.6 l 0,5 z"
             style="font-style:normal;font-variant:normal;font-weight:normal;font-stretch:normal;font-family:'Russo One';-inkscape-font-specification:'Russo One';text-align:center;text-anchor:middle;fill:#ffffff"
             id="path3444" />
          <path
             inkscape:connector-curvature="0"
             d="m 292.35403,425.13083 q 3.88,-0.8 6.8,-0.8 l 1.8,0 q 2.72,0 4.36,1.64 1.64,1.64 1.64,4.36 l 0,6.4 q 0,3 -1.72,4.72 -1.68,1.68 -4.68,1.68 l -8.8,0 q -3,0 -4.72,-1.68 -1.68,-1.72 -1.68,-4.72 l 0,-14.2 q 0,-2.88 1.92,-4.84 1.96,-1.96 5.28,-2.36 l 13.6,-1.6 0.6,5.6 -12.4,1.4 q -2,0.24 -2,2 l 0,2.4 z m 6,12.6 q 1.6,0 1.6,-1.6 l 0,-5 q 0,-0.6 -0.4,-1 -0.4,-0.4 -1,-0.4 l -1.4,0 q -1.56,0 -2.8,0.16 -1.24,0.16 -2,0.24 l 0,6 q 0,1.6 1.6,1.6 l 4.4,0 z"
             style="font-style:normal;font-variant:normal;font-weight:normal;font-stretch:normal;font-family:'Russo One';-inkscape-font-specification:'Russo One';text-align:center;text-anchor:middle;fill:#ffffff"
             id="path3446" />
          <path
             inkscape:connector-curvature="0"
             d="m 324.32903,429.33083 0,-7.8 7,0 0,21.2 -7,0 0,-8 -7.2,0 0,8 -7,0 0,-21.2 7,0 0,7.8 7.2,0 z"
             style="font-style:normal;font-variant:normal;font-weight:normal;font-stretch:normal;font-family:'Russo One';-inkscape-font-specification:'Russo One';text-align:center;text-anchor:middle;fill:#ffffff"
             id="path3448" />
          <path
             inkscape:connector-curvature="0"
             d="m 335.3634,442.73083 0,-21.2 7,0 0,6.6 7.8,0 q 2.72,0 4.36,1.64 1.64,1.64 1.64,4.36 l 0,2.6 q 0,2.72 -1.64,4.36 -1.64,1.64 -4.36,1.64 l -14.8,0 z m 12.4,-5 q 0.6,0 1,-0.4 0.4,-0.4 0.4,-1 l 0,-1.76 q 0,-0.6 -0.4,-1 -0.4,-0.4 -1,-0.4 l -5.4,0 0,4.56 5.4,0 z m 18,5 -7,0 0,-21.2 7,0 0,21.2 z"
             style="font-style:normal;font-variant:normal;font-weight:normal;font-stretch:normal;font-family:'Russo One';-inkscape-font-specification:'Russo One';text-align:center;text-anchor:middle;fill:#ffffff"
             id="path3450" />
          <path
             inkscape:connector-curvature="0"
             d="m 378.1384,419.53083 q -5.2,0 -5.2,-5.2 l 0,-1.2 5.2,0 0,1 q 0,0.6 0.4,1 0.4,0.4 1,0.4 l 1.2,0 q 0.6,0 1,-0.4 0.4,-0.4 0.4,-1 l 0,-1 5.2,0 0,1.2 q 0,5.2 -5.2,5.2 l -4,0 z m 5.4,2 7.4,0 0,21.2 -7,0 0,-11.6 -6.8,11.6 -7.4,0 0,-21.2 7,0 0,11.6 6.8,-11.6 z"
             style="font-style:normal;font-variant:normal;font-weight:normal;font-stretch:normal;font-family:'Russo One';-inkscape-font-specification:'Russo One';text-align:center;text-anchor:middle;fill:#ffffff"
             id="path3452" />
          <path
             inkscape:connector-curvature="0"
             d="m 424.20403,442.73083 -17.2,0 0,-21.2 7,0 0,15.8 7.2,0 0,-15.8 7,0 0,15.8 3,0 0,10.2 -6.6,0 -0.4,-4.8 z"
             style="font-style:normal;font-variant:normal;font-weight:normal;font-stretch:normal;font-family:'Russo One';-inkscape-font-specification:'Russo One';text-align:center;text-anchor:middle;fill:#ffffff"
             id="path3454" />
          <path
             inkscape:connector-curvature="0"
             d="m 442.23528,426.13083 q -1.6,0 -1.6,1.6 l 0,2.2 6.8,0 0,-2.2 q 0,-1.6 -1.6,-1.6 l -3.6,0 z m 11.4,16.2 q -7.72,0.8 -14,0.8 -2.72,0 -4.36,-1.64 -1.64,-1.64 -1.64,-4.36 l 0,-9.6 q 0,-3 1.68,-4.68 1.72,-1.72 4.72,-1.72 l 8,0 q 3,0 4.68,1.72 1.72,1.68 1.72,4.68 l 0,7.4 -13.8,0 0,1.6 q 0,0.6 0.4,1 0.4,0.4 1,0.4 3.96,0 11.6,-0.6 l 0,5 z"
             style="font-style:normal;font-variant:normal;font-weight:normal;font-stretch:normal;font-family:'Russo One';-inkscape-font-specification:'Russo One';text-align:center;text-anchor:middle;fill:#ffffff"
             id="path3456" />
          <path
             inkscape:connector-curvature="0"
             d="m 472.21965,429.33083 0,-7.8 7,0 0,21.2 -7,0 0,-8 -7.2,0 0,8 -7,0 0,-21.2 7,0 0,7.8 7.2,0 z"
             style="font-style:normal;font-variant:normal;font-weight:normal;font-stretch:normal;font-family:'Russo One';-inkscape-font-specification:'Russo One';text-align:center;text-anchor:middle;fill:#ffffff"
             id="path3458" />
          <path
             inkscape:connector-curvature="0"
             d="m 495.25403,426.93083 0,15.8 -7,0 0,-15.8 -6.6,0 0,-5.4 20.2,0 0,5.4 -6.6,0 z"
             style="font-style:normal;font-variant:normal;font-weight:normal;font-stretch:normal;font-family:'Russo One';-inkscape-font-specification:'Russo One';text-align:center;text-anchor:middle;fill:#ffffff"
             id="path3460" />
          <path
             inkscape:connector-curvature="0"
             d="m 516.06965,426.93083 q -2.12,0 -4.8,0.8 l 0,9.6 6,0 q 1.6,0 1.6,-1.6 l 0,-7.4 q 0,-0.6 -0.4,-1 -0.4,-0.4 -1,-0.4 l -1.4,0 z m -4.8,15.8 0,6.8 -7,0 0,-28 6.2,0 0.4,2 q 1.88,-1.24 3.84,-1.8 2,-0.6 3.36,-0.6 l 1.8,0 q 2.72,0 4.36,1.64 1.64,1.64 1.64,4.36 l 0,9.2 q 0,3 -1.72,4.72 -1.68,1.68 -4.68,1.68 l -8.2,0 z"
             style="font-style:normal;font-variant:normal;font-weight:normal;font-stretch:normal;font-family:'Russo One';-inkscape-font-specification:'Russo One';text-align:center;text-anchor:middle;fill:#ffffff"
             id="path3462" />
        </g>
        <g
           transform="matrix(0.9974267,0,0,1,2.2619225,0)"
           id="g3494"
           style="fill:#ffffff">
          <path
             inkscape:connector-curvature="0"
             d="m 220.23665,513.14318 -11.94375,0 16.23125,-42.875 12.25,0 16.23125,42.875 -11.94375,0 -2.75625,-7.65625 -15.3125,0 -2.75625,7.65625 z m 5.5125,-15.61875 9.8,0 -4.9,-14.39375 -4.9,14.39375 z"
             style="font-style:normal;font-variant:normal;font-weight:normal;font-stretch:normal;font-size:61.25px;font-family:'Russo One';-inkscape-font-specification:'Russo One';text-align:center;text-anchor:middle;fill:#ffffff"
             id="path3464" />
          <path
             inkscape:connector-curvature="0"
             d="m 253.67532,504.26193 q 15.61875,0.91875 22.05,0.91875 1.40875,0 2.205,-0.79625 0.8575,-0.8575 0.8575,-2.26625 l 0,-2.45 q 0,-3.675 -3.675,-3.675 l -14.7,0 0,-8.575 13.475,0 q 3.675,0 3.675,-3.675 l 0,-1.225 q 0,-3.675 -3.675,-3.675 l -19.6,0 0,-8.575 22.6625,0 q 6.0025,0 8.82,2.75625 2.8175,2.695 2.8175,8.26875 0,3.675 -1.715,6.0025 -1.65375,2.26625 -4.41,3.185 4.96125,1.3475 6.7375,6.615 0.6125,1.89875 0.6125,4.41 l 0,0.6125 q 0,6.0025 -2.8175,8.82 -2.8175,2.8175 -8.82,2.8175 -10.22875,0 -24.5,-1.225 l 0,-8.26875 z"
             style="font-style:normal;font-variant:normal;font-weight:normal;font-stretch:normal;font-size:61.25px;font-family:'Russo One';-inkscape-font-specification:'Russo One';text-align:center;text-anchor:middle;fill:#ffffff"
             id="path3466" />
          <path
             inkscape:connector-curvature="0"
             d="m 315.88235,480.68068 11.33125,0 0,32.4625 -10.71875,0 0,-17.7625 -10.4125,17.7625 -11.33125,0 0,-32.4625 10.71875,0 0,17.7625 10.4125,-17.7625 z"
             style="font-style:normal;font-variant:normal;font-weight:normal;font-stretch:normal;font-size:61.25px;font-family:'Russo One';-inkscape-font-specification:'Russo One';text-align:center;text-anchor:middle;fill:#ffffff"
             id="path3468" />
          <path
             inkscape:connector-curvature="0"
             d="m 370.75374,513.14318 -11.025,0 0,-14.0875 -8.26875,0 -7.65625,14.0875 -11.6375,0 7.9625,-14.7 q -3.92,-0.91875 -5.635,-3.73625 -1.715,-2.8175 -1.715,-7.90125 l 0,-4.2875 q 0,-6.43125 2.87875,-9.31 2.94,-2.94 9.37125,-2.94 l 25.725,0 0,42.875 z m -26.95,-26.3375 q 0,3.675 3.675,3.675 l 12.25,0 0,-11.6375 -12.25,0 q -3.675,0 -3.675,3.675 l 0,4.2875 z"
             style="font-style:normal;font-variant:normal;font-weight:normal;font-stretch:normal;font-size:61.25px;font-family:'Russo One';-inkscape-font-specification:'Russo One';text-align:center;text-anchor:middle;fill:#ffffff"
             id="path3470" />
          <path
             inkscape:connector-curvature="0"
             d="m 427.19465,483.74318 q 0,5.20625 -4.41,9.00375 -1.3475,1.16375 -2.94,2.3275 l -13.16875,9.49375 20.51875,0 0,8.575 -33.075,0 0,-11.6375 22.05,-15.925 0,-3.0625 q 0,-3.675 -3.675,-3.675 l -17.15,0 0,-8.575 19.6,0 q 6.43125,0 9.31,2.94 2.94,2.87875 2.94,9.31 l 0,1.225 z"
             style="font-style:normal;font-variant:normal;font-weight:normal;font-stretch:normal;font-size:61.25px;font-family:'Russo One';-inkscape-font-specification:'Russo One';text-align:center;text-anchor:middle;fill:#ffffff"
             id="path3472" />
          <path
             inkscape:connector-curvature="0"
             d="m 456.58508,481.90568 q 0,-3.675 -3.675,-3.675 l -6.7375,0 q -3.675,0 -3.675,3.675 l 0,19.6 q 0,3.675 3.675,3.675 l 6.7375,0 q 3.675,0 3.675,-3.675 l 0,-19.6 z m 11.025,19.6 q 0,6.43125 -2.94,9.37125 -2.87875,2.87875 -9.31,2.87875 l -11.6375,0 q -6.43125,0 -9.37125,-2.87875 -2.87875,-2.94 -2.87875,-9.37125 l 0,-19.6 q 0,-6.43125 2.87875,-9.31 2.94,-2.94 9.37125,-2.94 l 11.6375,0 q 6.43125,0 9.31,2.94 2.94,2.87875 2.94,9.31 l 0,19.6 z"
             style="font-style:normal;font-variant:normal;font-weight:normal;font-stretch:normal;font-size:61.25px;font-family:'Russo One';-inkscape-font-specification:'Russo One';text-align:center;text-anchor:middle;fill:#ffffff"
             id="path3474" />
          <path
             inkscape:connector-curvature="0"
             d="m 480.16155,513.14318 0,-33.38125 -7.04375,2.45 -3.0625,-7.04375 11.33125,-4.9 9.8,0 0,42.875 -11.025,0 z"
             style="font-style:normal;font-variant:normal;font-weight:normal;font-stretch:normal;font-size:61.25px;font-family:'Russo One';-inkscape-font-specification:'Russo One';text-align:center;text-anchor:middle;fill:#ffffff"
             id="path3476" />
          <path
             inkscape:connector-curvature="0"
             d="m 529.11848,483.74318 q 0,5.20625 -4.41,9.00375 -1.3475,1.16375 -2.94,2.3275 l -13.16875,9.49375 20.51875,0 0,8.575 -33.075,0 0,-11.6375 22.05,-15.925 0,-3.0625 q 0,-3.675 -3.675,-3.675 l -17.15,0 0,-8.575 19.6,0 q 6.43125,0 9.31,2.94 2.94,2.87875 2.94,9.31 l 0,1.225 z"
             style="font-style:normal;font-variant:normal;font-weight:normal;font-stretch:normal;font-size:61.25px;font-family:'Russo One';-inkscape-font-specification:'Russo One';text-align:center;text-anchor:middle;fill:#ffffff"
             id="path3478" />
        </g>
      </g>
    </g>
  </g>
</svg>
